<mxfile host="app.diagrams.net" modified="2024-03-26T09:49:08.170Z" agent="Mozilla/5.0 (Windows NT 10.0; Win64; x64; rv:123.0) Gecko/20100101 Firefox/123.0" etag="aLBRtQPCjMgoCs-r-oAz" version="24.0.2" type="github">
  <diagram name="Page-1" id="2a216829-ef6e-dabb-86c1-c78162f3ba2b">
    <mxGraphModel dx="944" dy="613" grid="1" gridSize="10" guides="1" tooltips="1" connect="1" arrows="1" fold="1" page="1" pageScale="1" pageWidth="850" pageHeight="1100" background="none" math="0" shadow="0">
      <root>
        <mxCell id="0" />
        <mxCell id="1" parent="0" />
        <mxCell id="Ow_sgtAgn3BazwAQavvg-2" value="LIST" style="swimlane;html=1;startSize=50;fontStyle=0;collapsible=0;horizontal=0;swimlaneLine=1;swimlaneFillColor=#ffffff;strokeWidth=2;whiteSpace=wrap;" vertex="1" parent="1">
          <mxGeometry x="70" y="120" width="840" height="290" as="geometry" />
        </mxCell>
        <mxCell id="Ow_sgtAgn3BazwAQavvg-6" value="" style="points=[[0.145,0.145,0],[0.5,0,0],[0.855,0.145,0],[1,0.5,0],[0.855,0.855,0],[0.5,1,0],[0.145,0.855,0],[0,0.5,0]];shape=mxgraph.bpmn.event;html=1;verticalLabelPosition=bottom;labelBackgroundColor=#ffffff;verticalAlign=top;align=center;perimeter=ellipsePerimeter;outlineConnect=0;aspect=fixed;outline=end;symbol=terminate2;" vertex="1" parent="Ow_sgtAgn3BazwAQavvg-2">
          <mxGeometry x="770" y="100" width="50" height="50" as="geometry" />
        </mxCell>
        <mxCell id="Ow_sgtAgn3BazwAQavvg-7" value="" style="points=[[0.145,0.145,0],[0.5,0,0],[0.855,0.145,0],[1,0.5,0],[0.855,0.855,0],[0.5,1,0],[0.145,0.855,0],[0,0.5,0]];shape=mxgraph.bpmn.event;html=1;verticalLabelPosition=bottom;labelBackgroundColor=#ffffff;verticalAlign=top;align=center;perimeter=ellipsePerimeter;outlineConnect=0;aspect=fixed;outline=standard;symbol=general;" vertex="1" parent="Ow_sgtAgn3BazwAQavvg-2">
          <mxGeometry x="70" y="100" width="50" height="50" as="geometry" />
        </mxCell>
        <mxCell id="Ow_sgtAgn3BazwAQavvg-3" value="TUD" style="swimlane;html=1;startSize=50;fontStyle=0;collapsible=0;horizontal=0;swimlaneLine=1;swimlaneFillColor=#ffffff;strokeWidth=2;whiteSpace=wrap;" vertex="1" parent="1">
          <mxGeometry x="70" y="410" width="840" height="220" as="geometry" />
        </mxCell>
        <mxCell id="Ow_sgtAgn3BazwAQavvg-4" value="SINTEF" style="swimlane;html=1;startSize=50;fontStyle=0;collapsible=0;horizontal=0;swimlaneLine=1;swimlaneFillColor=#ffffff;strokeWidth=2;whiteSpace=wrap;" vertex="1" parent="1">
          <mxGeometry x="70" y="630" width="840" height="220" as="geometry" />
        </mxCell>
        <mxCell id="Ow_sgtAgn3BazwAQavvg-5" value="Documentation and storage" style="points=[[0.25,0,0],[0.5,0,0],[0.75,0,0],[1,0.25,0],[1,0.5,0],[1,0.75,0],[0.75,1,0],[0.5,1,0],[0.25,1,0],[0,0.75,0],[0,0.5,0],[0,0.25,0]];shape=mxgraph.bpmn.task;whiteSpace=wrap;rectStyle=rounded;size=10;html=1;container=1;expand=0;collapsible=0;taskMarker=service;" vertex="1" parent="Ow_sgtAgn3BazwAQavvg-4">
          <mxGeometry x="150" y="60" width="120" height="80" as="geometry" />
        </mxCell>
      </root>
    </mxGraphModel>
  </diagram>
</mxfile>
